<svg width="32" height="32" viewBox="0 0 32 32" fill="none" xmlns="http://www.w3.org/2000/svg">
<path d="M31.9174 7.01722C31.7731 6.29059 31.4509 5.62566 31.001 5.07634C30.9061 4.95666 30.807 4.84947 30.6996 4.74228C29.9024 3.94116 28.7835 3.44141 27.5612 3.44141H4.43881C3.2165 3.44141 2.10162 3.94116 1.30069 4.74228C1.1935 4.84947 1.09438 4.95666 0.99925 5.07634C0.549062 5.62559 0.226875 6.29059 0.086625 7.01722C0.029 7.29766 0 7.58747 0 7.88047V24.12C0 24.743 0.132125 25.3419 0.36775 25.8827C0.586312 26.399 0.908562 26.8661 1.30062 27.2578C1.4 27.3569 1.49869 27.448 1.60637 27.5386C2.37425 28.1746 3.36544 28.5586 4.43881 28.5586H27.5612C28.6349 28.5586 29.6304 28.1746 30.3939 27.5346C30.5012 27.448 30.6004 27.3569 30.6996 27.2578C31.0914 26.8661 31.4136 26.399 31.6367 25.8827V25.8787C31.8723 25.3379 31.9999 24.743 31.9999 24.1201V7.88047C32 7.58747 31.9714 7.29766 31.9174 7.01722ZM2.90681 6.34822C3.30338 5.95209 3.83594 5.71228 4.43881 5.71228H27.5612C28.1641 5.71228 28.7013 5.95209 29.0932 6.34822C29.1633 6.41878 29.2294 6.49741 29.2877 6.57553L17.1685 17.1377C16.8343 17.4307 16.4214 17.5753 16 17.5753C15.5829 17.5753 15.1702 17.4307 14.8316 17.1377L2.717 6.57103C2.77063 6.49291 2.83669 6.41878 2.90681 6.34822ZM2.27087 24.12V8.92097L11.0411 16.5719L2.27531 24.2147C2.27087 24.1857 2.27087 24.1531 2.27087 24.12ZM27.5612 26.2873H4.43881C4.04625 26.2873 3.67894 26.1841 3.36544 26.0028L12.6141 17.9429L13.4775 18.694C14.2001 19.3219 15.1042 19.6399 16 19.6399C16.9004 19.6399 17.8045 19.3219 18.527 18.694L19.39 17.9429L28.635 26.0028C28.3211 26.1841 27.9538 26.2873 27.5612 26.2873ZM29.7291 24.12C29.7291 24.1531 29.7291 24.1857 29.7249 24.2147L20.9591 16.5763L29.7291 8.92503V24.12Z" fill="white"/>
</svg>
