<svg width="283" height="127" viewBox="0 0 283 127" fill="none" xmlns="http://www.w3.org/2000/svg">
<g clip-path="url(#clip0_334_60)">
<path d="M14.5348 50.3189C14.5348 50.3189 79.0862 -18.3367 146.63 49.0396C188.738 91.0432 272.313 9.80786 272.313 9.80786" stroke="#F2F0EF" stroke-width="2" stroke-miterlimit="10" stroke-linecap="round"/>
<path d="M277.443 6.823C278.151 6.823 278.725 6.25024 278.725 5.5437C278.725 4.83716 278.151 4.2644 277.443 4.2644C276.734 4.2644 276.16 4.83716 276.16 5.5437C276.16 6.25024 276.734 6.823 277.443 6.823Z" fill="#F2F0EF"/>
<path d="M281.718 2.55859C282.426 2.55859 283 1.98583 283 1.2793C283 0.57276 282.426 0 281.718 0C281.009 0 280.435 0.57276 280.435 1.2793C280.435 1.98583 281.009 2.55859 281.718 2.55859Z" fill="#F2F0EF"/>
<path d="M11.5422 55.4363C12.2505 55.4363 12.8247 54.8635 12.8247 54.157C12.8247 53.4504 12.2505 52.8777 11.5422 52.8777C10.834 52.8777 10.2598 53.4504 10.2598 54.157C10.2598 54.8635 10.834 55.4363 11.5422 55.4363Z" fill="#F2F0EF"/>
<path d="M8.12232 58.8477C8.83061 58.8477 9.4048 58.2749 9.4048 57.5684C9.4048 56.8618 8.83061 56.2891 8.12232 56.2891C7.41403 56.2891 6.83984 56.8618 6.83984 57.5684C6.83984 58.2749 7.41403 58.8477 8.12232 58.8477Z" fill="#F2F0EF"/>
<path d="M4.7024 62.259C5.41069 62.259 5.98488 61.6863 5.98488 60.9797C5.98488 60.2732 5.41069 59.7004 4.7024 59.7004C3.99411 59.7004 3.41992 60.2732 3.41992 60.9797C3.41992 61.6863 3.99411 62.259 4.7024 62.259Z" fill="#F2F0EF"/>
<path d="M1.28248 66.5234C1.99077 66.5234 2.56495 65.9507 2.56495 65.2441C2.56495 64.5376 1.99077 63.9648 1.28248 63.9648C0.574185 63.9648 0 64.5376 0 65.2441C0 65.9507 0.574185 66.5234 1.28248 66.5234Z" fill="#F2F0EF"/>
<path d="M3.47985 126.215C3.12075 125.687 2.99251 124.834 3.078 123.657C3.1635 122.48 3.4029 121.158 3.77054 119.682C4.14674 118.207 4.61698 116.663 5.18982 115.043C5.76266 113.431 6.32695 111.879 6.89979 110.403C7.47263 108.928 7.99417 107.606 8.47296 106.429C8.95175 105.252 9.30229 104.399 9.51604 103.87C9.76399 103.342 10.0974 102.582 10.5078 101.602C10.9182 100.629 11.3628 99.5633 11.8416 98.4034C12.3204 97.2521 12.8334 96.0325 13.3635 94.7532C13.8936 93.4739 14.4066 92.2458 14.8853 91.0773C15.3641 89.9089 15.8087 88.8428 16.2191 87.8791C16.6295 86.9239 16.9544 86.1563 17.2109 85.5849C17.9975 85.3376 18.5105 85.3632 18.7584 85.6617C19.0064 85.9687 19.0833 86.4719 18.9722 87.1798C18.8696 87.8876 18.6131 88.749 18.2198 89.7639C17.8265 90.7788 17.3734 91.862 16.8604 93.0133C16.3474 94.1732 15.8087 95.3502 15.253 96.5613C14.6972 97.7723 14.2014 98.9152 13.7568 99.9983C13.3122 101.081 12.9702 102.071 12.7393 102.958C12.5085 103.845 12.4486 104.561 12.5512 105.09C13.1925 105.158 13.9278 105.158 14.7656 105.09C15.6035 105.022 16.4585 104.911 17.3306 104.766C18.2027 104.621 19.0662 104.467 19.9212 104.288C20.7762 104.109 21.5286 103.964 22.1613 103.862C25.4017 103.333 27.9923 102.565 29.9331 101.568C31.8739 100.57 33.4984 99.299 34.7979 97.7553C36.0975 96.2116 37.2261 94.3523 38.1922 92.1861C39.1498 90.0198 40.2613 87.4953 41.5096 84.6126C41.8345 84.0071 42.1166 83.7512 42.3646 83.8365C42.6125 83.9303 42.8177 84.1777 42.9801 84.587C43.1426 84.9964 43.2537 85.4484 43.3307 85.9431C43.3991 86.4378 43.3991 86.796 43.3307 87.0092C43.2965 87.1115 43.1853 87.3503 43.0058 87.7C42.8262 88.0497 42.6296 88.442 42.4159 88.8428C42.2021 89.2522 42.0055 89.6275 41.8259 89.9601C41.6464 90.3012 41.5438 90.523 41.501 90.6253C41.4326 90.7703 41.3386 91.0091 41.236 91.3417C41.1334 91.6829 41.0051 92.0411 40.8598 92.4334C40.7144 92.8257 40.5947 93.1925 40.4836 93.5251C40.381 93.8662 40.304 94.105 40.2698 94.2415C40.4494 94.2756 40.6888 94.4462 40.988 94.7447C41.2873 95.0517 41.4583 95.2905 41.4925 95.4611C41.5951 96.0666 41.407 96.7489 40.9025 97.5165C40.4066 98.284 39.7911 99.0687 39.0558 99.8874C38.329 100.706 37.6108 101.508 36.9183 102.284C36.2258 103.069 35.747 103.794 35.499 104.467C34.037 108.024 32.7802 111.572 31.7285 115.128C30.6769 118.685 29.8989 122.36 29.403 126.164C29.3004 126.343 29.1379 126.522 28.9242 126.693C28.7105 126.872 28.4796 126.889 28.2317 126.744C28.1633 125.959 28.2231 124.885 28.4198 123.52C28.6164 122.156 28.8729 120.663 29.1978 119.043C29.5227 117.431 29.8732 115.785 30.2665 114.113C30.6598 112.442 31.0189 110.906 31.3609 109.499C31.7029 108.101 31.9765 106.932 32.1902 106.011C32.404 105.09 32.4895 104.57 32.4553 104.467C31.7029 104.322 30.7453 104.297 29.5654 104.391C28.3856 104.484 27.1031 104.638 25.718 104.868C24.3329 105.098 22.888 105.371 21.3918 105.695C19.8956 106.02 18.4421 106.361 17.0399 106.736C15.6292 107.111 14.3211 107.469 13.1155 107.802C11.9014 108.143 10.9097 108.433 10.1231 108.68C9.51604 110.028 9.02015 111.512 8.62686 113.132C8.23356 114.753 7.83172 116.373 7.42133 118.011C7.01094 119.648 6.55779 121.218 6.0619 122.727C5.56601 124.237 4.90767 125.576 4.08689 126.753C4.01849 126.719 3.89879 126.633 3.73634 126.488C3.5739 126.343 3.47985 126.241 3.44565 126.164L3.47985 126.215Z" fill="#F2F0EF"/>
<path d="M39.3123 125.576C38.4573 124.868 37.987 123.819 37.893 122.429C37.8075 121.047 37.9956 119.478 38.4829 117.738C38.9617 115.998 39.6799 114.173 40.6204 112.271C41.5609 110.369 42.6553 108.561 43.9035 106.83C45.1518 105.107 46.5027 103.563 47.9647 102.19C49.4267 100.826 50.8888 99.8107 52.3422 99.154C53.8043 98.4973 55.2321 98.267 56.6172 98.4632C58.0022 98.6593 59.2676 99.4696 60.4133 100.885C61.1229 101.772 61.5504 102.668 61.6958 103.58C61.8411 104.484 61.824 105.414 61.6445 106.352C61.4649 107.299 61.1828 108.254 60.7895 109.235C60.3962 110.216 60.0114 111.196 59.6438 112.194C59.2676 113.192 58.9684 114.207 58.7375 115.23C58.5067 116.262 58.4639 117.311 58.6007 118.378C58.7803 119.725 59.3873 120.527 60.4133 120.774C61.4478 121.021 62.6876 120.953 64.1239 120.561C65.5688 120.169 67.0907 119.546 68.6895 118.693C70.2884 117.84 71.776 116.987 73.1526 116.135C74.5205 115.282 76.1194 114.216 77.9319 112.936C78.9323 112.723 79.488 112.783 79.6163 113.124C79.736 113.465 79.5479 113.96 79.0263 114.616C78.5133 115.273 77.7353 116.024 76.7008 116.851C75.6662 117.687 74.4949 118.497 73.1782 119.273C71.8615 120.058 70.4508 120.766 68.9546 121.405C67.4584 122.045 65.9963 122.48 64.5771 122.71C63.1492 122.94 61.8069 122.923 60.5415 122.659C59.2762 122.395 58.2331 121.763 57.4123 120.766C57.019 120.339 56.7283 119.913 56.5317 119.486C56.335 119.06 56.0272 118.685 55.5997 118.369C55.0696 118.864 54.4198 119.512 53.676 120.314C52.9322 121.115 52.1199 121.917 51.2479 122.71C50.3758 123.512 49.4524 124.262 48.4692 124.979C47.4859 125.687 46.4856 126.224 45.4511 126.582C44.4165 126.94 43.3734 127.06 42.3218 126.957C41.2702 126.855 40.2613 126.386 39.3037 125.576H39.3123ZM39.9022 123.768C40.2271 124.902 40.9367 125.431 42.0397 125.337C43.1426 125.252 44.4251 124.706 45.8871 123.708C47.3491 122.71 48.8624 121.354 50.4271 119.631C51.9917 117.908 53.4024 115.99 54.6507 113.874C55.899 111.759 56.848 109.533 57.5063 107.188C58.1647 104.843 58.3357 102.531 58.0108 100.263C57.1558 99.589 56.0871 99.5634 54.8046 100.186C53.5221 100.809 52.1627 101.823 50.7178 103.222C49.2728 104.629 47.8536 106.301 46.4428 108.237C45.0321 110.173 43.8009 112.126 42.7322 114.105C41.6635 116.083 40.8512 117.934 40.304 119.674C39.7483 121.414 39.6201 122.787 39.9022 123.776V123.768Z" fill="#F2F0EF"/>
<path d="M72.0411 126.215C71.9727 126.181 71.9812 125.763 72.0667 124.962C72.1522 124.16 72.289 123.162 72.4686 121.951C72.6481 120.74 72.879 119.409 73.1611 117.951C73.4433 116.493 73.751 115.103 74.0674 113.764C74.3837 112.425 74.7343 111.256 75.1105 110.25C75.4867 109.243 75.8458 108.535 76.2049 108.143C76.4528 107.896 76.7008 107.887 76.9572 108.118C77.2052 108.348 77.4531 108.638 77.7096 108.97C77.9576 109.312 78.2055 109.61 78.462 109.874C78.71 110.139 78.975 110.164 79.2657 109.951C80.266 108.57 81.3604 107.239 82.5488 105.977C83.7458 104.715 85.0711 103.623 86.5331 102.702C86.6784 102.6 87.0632 102.429 87.713 102.199C88.3542 101.968 89.0809 101.738 89.9017 101.508C90.7225 101.278 91.5689 101.081 92.441 100.919C93.3131 100.757 94.0655 100.689 94.6811 100.706C95.3052 100.723 95.7327 100.885 95.9636 101.184C96.1944 101.491 96.0747 101.994 95.613 102.702C93.4756 102.736 91.4834 103.359 89.6281 104.57C87.7728 105.781 86.0628 107.273 84.4982 109.047C82.9336 110.821 81.5058 112.749 80.2233 114.83C78.9408 116.911 77.8293 118.838 76.8803 120.612C75.9398 122.386 75.1532 123.861 74.5291 125.038C73.9049 126.215 73.4518 126.795 73.1697 126.795C73.1355 126.795 72.973 126.719 72.6909 126.556C72.4087 126.394 72.195 126.284 72.0496 126.207L72.0411 126.215Z" fill="#F2F0EF"/>
<path d="M116.158 126.215C115.201 125.823 114.431 125.311 113.858 124.672C113.286 124.032 112.841 123.307 112.525 122.488C112.2 121.67 111.952 120.808 111.772 119.904C111.593 119 111.43 118.088 111.293 117.158C110.968 116.945 110.404 117.158 109.583 117.772C108.763 118.395 107.822 119.171 106.753 120.092C105.685 121.013 104.539 121.968 103.308 122.94C102.077 123.921 100.897 124.637 99.7511 125.098C98.614 125.559 97.5709 125.652 96.6218 125.362C95.6814 125.081 94.9375 124.151 94.4074 122.591C94.2279 122.062 94.2877 121.286 94.5955 120.271C94.8948 119.256 95.3479 118.147 95.955 116.936C96.562 115.725 97.2631 114.48 98.0668 113.175C98.8705 111.879 99.6485 110.668 100.418 109.55C101.187 108.433 101.897 107.469 102.555 106.668C103.214 105.866 103.718 105.346 104.077 105.098C104.898 105.491 105.257 106.088 105.172 106.881C105.086 107.683 104.761 108.595 104.214 109.627C103.658 110.659 102.949 111.759 102.077 112.936C101.205 114.113 100.384 115.273 99.6143 116.424C98.8448 117.584 98.2292 118.693 97.7675 119.759C97.3058 120.825 97.1776 121.772 97.3913 122.582C98.1779 122.906 99.1441 122.736 100.307 122.079C101.461 121.422 102.709 120.51 104.052 119.333C105.394 118.156 106.762 116.817 108.164 115.307C109.575 113.798 110.883 112.339 112.089 110.941C113.303 109.542 114.371 108.305 115.295 107.239C116.218 106.173 116.902 105.465 117.33 105.107C118.082 105.465 118.45 106.037 118.45 106.838C118.45 107.64 118.244 108.552 117.834 109.584C117.424 110.616 116.928 111.725 116.338 112.919C115.748 114.113 115.243 115.29 114.816 116.467C114.388 117.644 114.14 118.761 114.064 119.827C113.995 120.893 114.277 121.815 114.919 122.599L116.731 124.731H122.126C122.374 124.731 122.425 124.834 122.288 125.055C122.143 125.269 121.938 125.499 121.673 125.746C121.408 125.994 121.126 126.232 120.844 126.463C120.561 126.693 120.399 126.812 120.365 126.812C119.441 126.991 118.689 127.017 118.125 126.889C117.552 126.77 116.894 126.539 116.15 126.224L116.158 126.215Z" fill="#F2F0EF"/>
<path d="M143.33 124.987C141.047 121.857 139.217 119.273 137.824 117.235C136.439 115.196 135.293 113.67 134.404 112.68C133.515 111.682 132.779 111.205 132.215 111.239C131.642 111.273 131.027 111.819 130.368 112.868C129.71 113.917 128.898 115.452 127.94 117.482C126.982 119.512 125.657 122.011 123.99 124.996C123.776 125.388 123.554 125.627 123.323 125.712C123.092 125.806 122.87 125.806 122.656 125.712C122.443 125.627 122.246 125.456 122.066 125.209C121.887 124.962 121.741 124.697 121.639 124.407C121.536 124.049 121.656 123.367 122.015 122.352C122.374 121.337 122.896 120.117 123.588 118.676C124.281 117.235 125.102 115.64 126.051 113.883C126.991 112.126 127.991 110.318 129.043 108.476C130.095 106.625 131.146 104.8 132.198 102.983C133.25 101.175 134.233 99.495 135.139 97.9428C136.045 96.3906 136.858 95.0346 137.567 93.8661C138.277 92.6892 138.798 91.8278 139.115 91.2564C139.363 91.0773 139.619 91.0602 139.893 91.2052C140.158 91.3502 140.389 91.5719 140.585 91.8704C140.782 92.1775 140.91 92.493 140.987 92.8256C141.056 93.1668 141.021 93.4397 140.885 93.6529L136.08 102.079V103.307C136.832 103.486 137.764 103.427 138.884 103.12C140.004 102.821 141.218 102.386 142.518 101.815C143.817 101.243 145.142 100.578 146.502 99.8191C147.853 99.0601 149.144 98.2925 150.375 97.5249C151.606 96.7659 152.709 96.0324 153.692 95.3416C154.675 94.6508 155.445 94.0879 156.018 93.6615C156.479 93.4141 156.898 93.3374 157.275 93.4482C157.651 93.5591 157.933 93.7553 158.13 94.0367C158.326 94.3182 158.403 94.6593 158.369 95.0516C158.335 95.4439 158.155 95.8021 157.839 96.1177C156.839 97.1497 155.659 98.0281 154.282 98.7531C152.914 99.4865 151.461 100.135 149.93 100.723C148.4 101.312 146.835 101.857 145.254 102.378C143.672 102.898 142.141 103.452 140.688 104.058C139.226 104.663 137.892 105.337 136.678 106.088C135.464 106.838 134.472 107.725 133.686 108.749C134.147 109.141 134.763 109.755 135.532 110.591C136.302 111.427 137.14 112.356 138.046 113.388C138.952 114.42 139.867 115.512 140.799 116.663C141.722 117.823 142.552 118.94 143.287 120.023C144.014 121.107 144.621 122.087 145.1 122.957C145.578 123.827 145.818 124.51 145.818 125.013V126.241C145.536 126.386 145.271 126.428 145.04 126.377C144.809 126.326 144.587 126.224 144.373 126.087C144.159 125.942 143.971 125.78 143.809 125.584C143.646 125.388 143.492 125.2 143.355 125.021L143.33 124.987Z" fill="#F2F0EF"/>
<path d="M159.395 125.576C158.54 124.868 158.07 123.819 157.976 122.429C157.89 121.047 158.078 119.478 158.566 117.738C159.044 115.998 159.763 114.173 160.703 112.271C161.644 110.369 162.738 108.561 163.986 106.83C165.234 105.107 166.585 103.563 168.047 102.19C169.509 100.826 170.971 99.8107 172.425 99.154C173.887 98.4973 175.315 98.267 176.7 98.4632C178.085 98.6593 179.35 99.4696 180.496 100.885C181.206 101.772 181.633 102.668 181.778 103.58C181.924 104.484 181.907 105.414 181.727 106.352C181.548 107.299 181.265 108.254 180.872 109.235C180.479 110.216 180.094 111.196 179.726 112.194C179.35 113.192 179.051 114.207 178.82 115.23C178.589 116.262 178.547 117.311 178.683 118.378C178.863 119.725 179.47 120.527 180.496 120.774C181.53 121.021 182.77 120.953 184.207 120.561C185.651 120.169 187.173 119.546 188.772 118.693C190.371 117.84 191.859 116.987 193.235 116.135C194.603 115.282 196.202 114.216 198.015 112.936C199.015 112.723 199.571 112.783 199.699 113.124C199.827 113.465 199.63 113.96 199.109 114.616C198.596 115.273 197.818 116.024 196.783 116.851C195.749 117.687 194.578 118.497 193.261 119.273C191.944 120.058 190.533 120.766 189.037 121.405C187.541 122.045 186.079 122.48 184.66 122.71C183.232 122.94 181.89 122.923 180.624 122.659C179.359 122.395 178.316 121.763 177.495 120.766C177.102 120.339 176.811 119.913 176.614 119.486C176.418 119.06 176.11 118.685 175.682 118.369C175.152 118.864 174.502 119.512 173.759 120.314C173.015 121.115 172.203 121.917 171.33 122.71C170.458 123.512 169.535 124.262 168.552 124.979C167.569 125.687 166.568 126.224 165.534 126.582C164.499 126.94 163.456 127.06 162.404 126.957C161.353 126.855 160.344 126.386 159.386 125.576H159.395ZM159.985 123.768C160.31 124.902 161.019 125.431 162.122 125.337C163.225 125.252 164.508 124.706 165.97 123.708C167.432 122.71 168.945 121.354 170.51 119.631C172.074 117.908 173.485 115.99 174.733 113.874C175.982 111.759 176.931 109.533 177.589 107.188C178.247 104.843 178.418 102.531 178.093 100.263C177.238 99.589 176.17 99.5634 174.887 100.186C173.605 100.809 172.245 101.823 170.8 103.222C169.355 104.629 167.936 106.301 166.525 108.237C165.115 110.173 163.884 112.126 162.815 114.105C161.746 116.083 160.934 117.934 160.387 119.674C159.831 121.414 159.703 122.787 159.985 123.776V123.768Z" fill="#F2F0EF"/>
<path d="M210.198 126.215C209.702 125.465 209.565 124.714 209.796 123.947C210.027 123.188 210.429 122.599 211.002 122.19C211.575 121.78 212.199 121.618 212.874 121.712C213.55 121.806 214.071 122.292 214.422 123.179C214.635 123.708 214.61 124.271 214.345 124.859C214.08 125.448 213.695 125.925 213.199 126.301C212.703 126.676 212.165 126.889 211.592 126.94C211.019 126.991 210.557 126.753 210.207 126.224L210.198 126.215Z" fill="#F2F0EF"/>
<path d="M233.479 125.576C233.727 124.475 234.163 123.247 234.787 121.9C235.412 120.552 236.096 119.222 236.848 117.9C237.6 116.586 238.327 115.333 239.037 114.139C239.746 112.953 240.319 111.947 240.747 111.128C240.96 110.702 241.285 110.054 241.738 109.184C242.183 108.314 242.679 107.316 243.235 106.199C243.79 105.081 244.372 103.913 244.996 102.71C245.62 101.499 246.21 100.339 246.757 99.2222C247.313 98.1049 247.809 97.1071 248.253 96.2371C248.698 95.3672 249.031 94.719 249.245 94.2926C250.348 93.1583 251.263 92.8342 251.998 93.3374C252.725 93.8321 253.375 94.847 253.948 96.3736C254.52 97.9002 255.033 99.7851 255.495 102.02C255.957 104.254 256.453 106.548 256.991 108.894C257.53 111.239 258.128 113.482 258.804 115.614C259.479 117.746 260.3 119.469 261.266 120.783C261.728 120.996 262.292 120.766 262.951 120.092C263.609 119.418 264.327 118.429 265.114 117.132C265.9 115.836 266.721 114.318 267.576 112.578C268.431 110.838 269.295 109.005 270.167 107.086C271.039 105.167 271.885 103.231 272.706 101.278C273.527 99.3245 274.288 97.5164 275.006 95.8704C275.716 94.2159 276.331 92.7745 276.853 91.5293C277.366 90.2841 277.767 89.4142 278.058 88.9196C278.306 88.459 278.563 88.2373 278.836 88.2543C279.101 88.2714 279.324 88.4164 279.503 88.6808C279.683 88.9452 279.811 89.2863 279.905 89.6957C279.99 90.105 279.982 90.4718 279.879 90.7873C278.742 93.8747 277.673 96.6721 276.673 99.1539C275.673 101.644 274.647 104.041 273.604 106.352C272.552 108.663 271.432 111.017 270.235 113.414C269.038 115.81 267.679 118.471 266.148 121.38C265.011 122.761 263.908 123.537 262.831 123.699C261.754 123.861 260.659 123.085 259.514 121.38C258.334 119.316 257.41 117.363 256.735 115.512C256.059 113.661 255.478 111.845 254.999 110.045C254.52 108.254 254.084 106.42 253.691 104.553C253.298 102.685 252.819 100.672 252.246 98.5058C251.921 98.2925 251.391 98.6678 250.639 99.623C249.886 100.578 249.023 101.858 248.048 103.461C247.065 105.064 246.048 106.855 244.979 108.842C243.91 110.83 242.893 112.749 241.935 114.599C240.977 116.45 240.123 118.105 239.37 119.554C238.618 121.013 238.088 122.028 237.763 122.591C237.583 122.915 237.361 123.299 237.096 123.768C236.831 124.228 236.566 124.689 236.292 125.149C236.027 125.61 235.694 126.164 235.3 126.804H233.488C233.454 126.736 233.437 126.539 233.437 126.215C233.437 125.891 233.454 125.687 233.488 125.576H233.479Z" fill="#F2F0EF"/>
</g>
<defs>
<clipPath id="clip0_334_60">
<rect width="283" height="127" fill="white"/>
</clipPath>
</defs>
</svg>
